<svg id="Layer_1" data-name="Layer 1" xmlns="http://www.w3.org/2000/svg" viewBox="0 0 500 500"><defs><style>.cls-1{fill:#fff;}.cls-1,.cls-10,.cls-11,.cls-12,.cls-13,.cls-2,.cls-3,.cls-4,.cls-5,.cls-6,.cls-7,.cls-8,.cls-9{fill-rule:evenodd;}.cls-2{fill:#455d2b;}.cls-3{fill:#f8dead;}.cls-4{fill:#98c73c;}.cls-5{fill:#cc4745;}.cls-6{fill:#d9eac0;}.cls-7{fill:#618239;}.cls-8{fill:#759a3e;}.cls-9{fill:#822d30;}.cls-10{fill:#ecbec3;}.cls-11{fill:#f4c258;}.cls-12{fill:#f9e8c8;}.cls-13{fill:#ba9545;}</style></defs><path class="cls-1" d="M343.16565,352.57421c9.16039,1.3041,12.851.95389,12.33781,4.4914-13.51785,93.17563-12.2019,89.36546-15.895,88.845l-16.784-2.41017c-.08263.56761-3.89043,26.9852-3.89043,26.29219-7.36018,26.01036-51.70263,21.17314-51.70263-7.53175l3.89042-25.85371L180.229,423.09157c-3.93463,26.91388-5.05508,27.87537-5.05508,27.82147,0,5.36614-13.5068,17.055-29.63884,14.82618-22.87461-3.34011-20.56275-27.99722-20.56275-23.88208,0-.33316-.31913,1.91156,3.8895-26.18205-16.84314-2.4028-19.64226-1.86313-19.11789-5.47752,13.51785-93.17562,12.2018-89.36512,15.89493-88.84494l10.004,1.42406,11.34239-76.688c-7.03282,1.10971-10.29758-.95464-10.8983-4.4886-.51132-1.00961,8.52272-49.52856,7.58472-53.206A135.18428,135.18428,0,0,1,82.7598,170.31834c-37.77884-7.728-43.88954-32.36344-17.477-61.82109C63.81668,81.17732,94.05067,63.27752,119.52538,52.1883,148.53644,26.88266,182.327,15.92774,220.897,20.1999c57.35465-14.46031,111.70891-7.12075,162.7285,22.458,42.79372,5.58662,71.58227,25.74407,66.69108,71.42644.41082,26.98951-17.23918,49.25483-38.27313,65.26347C401.14694,187.641,380.31882,194.818,379.69565,198.913c-12.63862,83.05381-8.80955,86.30944-25.41079,78.4821Z"/><path class="cls-1" d="M327.49317,338.11341l9.00319-61.0191a349.7913,349.7913,0,0,0-172.62074-24.75806l-9.00313,61.01916L286.36582,332.198c8.82994-4.15656,19.09805-1.99026,24.7874,3.61493Z"/><path class="cls-1" d="M280.808,336.9086C140.76736,316.751,148.5354,319.05671,149.09219,315.21789c10.33087-71.22592,9.15585-67.35935,12.00457-67.92111,6.54423,0,86.00925-14.1959,179.40076,25.74412a2.52808,2.52808,0,0,1,1.66736,2.84859l-9.67066,65.62015a2.737,2.737,0,0,1-3.11216,2.30047l-13.44937-1.86247c5.38024,9.272-5.8887,5.83733,21.89768,9.8597l12.00457-82.053a360.69074,360.69074,0,0,0-196.74153-28.15423l-12.00452,81.94342L276.02857,342.9337A41.97383,41.97383,0,0,1,280.808,336.9086Z"/><path class="cls-1" d="M273.02818,347.97317,127.52874,327.04885,115.52417,408.335l222.19448,31.87881,12.00457-81.28571c-35.91218-5.12771-31.31712-5.30019-31.79-2.51976-3.5562,16.65167-8.44739,29.90717-17.673,43.16262a121.99568,121.99568,0,0,0,25.56565-13.03626c3.067-1.92415,5.95392,2.63987,3.00039,4.49145C271.39371,429.358,193.414,415.46991,153.09341,360.57143a48.84012,48.84012,0,0,0-13.56016,25.85371c-.52321,3.34853-5.98666,2.734-5.44694-.98606,4.126-22.56869,21.27985-38.53007,41.46058-43.38185a2.60116,2.60116,0,0,1,3.223,1.97212c1.53051,4.89765-8.04225,1.86175-21.6743,12.92667a122.80408,122.80408,0,0,0,76.25008,48.09249c13.67188-5.47751,22.00853-13.91273,27.8995-27.16817C264.74648,370.28856,271.81036,347.97317,273.02818,347.97317Z"/><path class="cls-1" d="M242.9055,406.47256a123.56205,123.56205,0,0,0,48.35151-3.94381c11.78206-14.78914,17.3398-28.81146,21.341-47.216,2.73614-12.94348-11.015-24.64265-24.34238-18.07573C267.49239,354.1761,274.40241,389.19076,242.9055,406.47256Z"/><path class="cls-1" d="M134.41955,334.49848,270.36,353.99827a58.46025,58.46025,0,0,1,2.66814-6.0251L127.52874,327.04885,115.52417,408.335l7.78084,1.09571ZM316.93346,360.681l31.90071,4.601.88905-6.35393-31.45575-4.4914A48.31759,48.31759,0,0,1,316.93346,360.681Z"/><path class="cls-1" d="M332.60594,433.96957c-273.22639-32.03356-286.64782-35.64342,5.11271,6.24428C352.529,340.37486,354.25883,342.32171,332.60594,433.96957Z"/><path class="cls-1" d="M153.09341,360.57143a48.97261,48.97261,0,0,0-13.56016,25.85371,63.451,63.451,0,0,1,7.77992-10.955c-12.9474-12.77386,55.70871,68.258,153.05777,29.79753C244.64293,424.593,185.61982,404.85772,153.09341,360.57143Zm-8.78069,11.941c2.619,2.582,2.71455,2.67619,0,0Z"/><path class="cls-1" d="M283.80941,344.577c.15223,0,.52618-.78853.55581-.87647,4.8571-7.4767,8.69264-8.4899,3.89042-6.46352-20.6001,16.806-13.96356,52.0143-45.35014,69.23556a123.56205,123.56205,0,0,0,48.35151-3.94381c1.97092-2.91723,3.4556-1.86006-6.11353-.21875-12.56032,2.51927-25.23143,4.49139-37.90347,3.06734C271.99816,391.54139,273.51391,362.02956,283.80941,344.577Z"/><path class="cls-1" d="M308.7076,355.8608c-9.61125,45.41851-28.651,47.91834-16.00578,44.8059,10.78227-14.132,16.11749-27.71624,19.8962-45.354,2.54309-12.03024-9.1406-22.73567-21.00771-19.2806A16.57786,16.57786,0,0,1,308.7076,355.8608Z"/><path class="cls-1" d="M175.54689,342.05723c-24.07815,0-42.8425,20.2147-41.46058,43.38185,4.16956-22.80688,19.06836-31.00234,17.56229-31.00234C164.40177,343.12415,177.44238,342.05723,175.54689,342.05723Z"/><path class="cls-1" d="M160.541,314.23183l8.44739-56.747a350.01489,350.01489,0,0,1,166.84044,23.99124l.66752-4.38181a349.7913,349.7913,0,0,0-172.62074-24.75806l-9.00313,61.01916Z"/><path class="cls-1" d="M347.05607,272.05484A361.3627,361.3627,0,0,0,152.8709,243.46262l.22251-1.86253a360.69074,360.69074,0,0,1,196.74153,28.15423c-13.78057,94.19227-10.97452,82.22961-14.56185,81.61459Z"/><path class="cls-1" d="M145.42428,324.20074,157.42884,242.915c-1.55657.21875-3.11216.438-4.55794.54764l-11.782,80.08089Z"/><path class="cls-1" d="M143.757,237.21828c76.0285-13.80357,148.2783-2.739,217.08177,31.112l8.3366-56.08929c-25.434-36.57543-175.23814-58.4538-216.19272-37.57594C153.06806,174.665,147.54781,212.21176,143.757,237.21828Z"/><path class="cls-1" d="M210.449,156.15132a388.3506,388.3506,0,0,1,77.02834,8.87364c-4.112-8.65445-3.668-15.00838-.3333-26.07295,7.67006-26.40129,36.01365-39.98562,45.46186-75.69909,2.88965-10.51649-.445.76683,2.88965-10.18815,3.00138,21.91-8.78068,42.50539-22.2301,59.15706-18.22977,22.896-25.5656,25.08689-22.231,53.46036,17.549,3.79736,42.67072,11.08763,57.68887,19.39019-1.22327-8.216,2.88966-12.15979,7.77992-21.14307,11.338-20.92389,36.90368-34.50817,51.4646-56.19888,1.55559-2.41011,8.11409-13.58433,9.44723-15.7752-1.29458,6.53212-2.11909,23.0358-31.45575,50.50212-19.78542,18.5142-27.233,19.93826-32.34574,45.24438,7.00259,4.16306,13.78267,9.42128,17.8956,15.556,1.77086-13.61293,1.84246-14.08,3.66792-14.6795,36.8001-13.56306,70.94642-35.74,69.69344-74.60343-.48091-14.91618,7.48294-57.19279-62.46835-66.16822-4.66287,0-64.386-46.902-160.61617-22.34837-3.9,1.28235-50.80169-11.27663-99.03687,31.00282-1.59907,1.57557-55.45949,20.48413-52.02036,52.80313,0,3.02883-20.26646,20.55174-15.33918,34.83651C60.135,157.41972,84.3338,159.916,85.28983,160.862a128.73342,128.73342,0,0,0,58.24463,17.52809c.435-3.87138,2.67508-8.10524,8.00335-11.83139-2.11232-10.29774-3.89042-13.03674-16.45074-17.96614-16.34-6.57316-42.683-12.48862-49.79724-30.89317-3.12914-14.94684-1.85-2.50281,11.44876,6.79192,13.89439,9.7501,67.69284,16.104,61.13429,38.78081,10.11568-5.91551,20.78618-5.58711,29.56686-6.24434,7.11431-.65723,13.00534-1.09565,20.23043-1.09565-16.32656-29.16218-4.13259-70.85991-10.11568-89.39258-1.88889-5.69675-4.33451-8.216-7.89163-12.81751l5.22449,2.51976c13.22685,9.53087,11.782,39.76687,11.44876,54.11754C205.45035,142.48329,211.42651,156.17427,210.449,156.15132Z"/><path class="cls-1" d="M162.54161,171.15965a49.08027,49.08027,0,0,0-9.559,3.50539c-1.03939,8.18887-9.23587,62.62164-9.22565,62.55324,76.0285-13.80357,148.2783-2.739,217.08177,31.112l1.00077-6.68233c-66.248-30.89318-135.274-44.03909-208.07858-30.78359C162.61071,170.84057,162.5491,171.10552,162.54161,171.15965Z"/><path class="cls-1" d="M351.39053,256.9373c3.44546,1.5337,7.00259,3.06734,10.449,4.71064l7.33583-49.407c-20.85812-29.99506-124.96177-50.09466-184.51446-44.80585-18.11819,1.5865-22.2869,4.05625-22.23006,3.94376,52.60312-8.19065,171.75978,10.07629,195.07325,43.60061C357.58952,214.9795,351.3796,257.01232,351.39053,256.9373Z"/><path class="cls-1" d="M207.67017,155.93209c-16.32656-29.16218-4.13259-70.85991-10.11568-89.39258-1.88889-5.69675-4.33451-8.216-7.89163-12.81751l5.22449,2.51976c13.22685,9.53087,11.782,39.76687,11.44876,54.11754-.55581,20.1575.77826,27.82589,4.11293,45.792a388.3506,388.3506,0,0,1,77.02834,8.87364c-4.112-8.65445-3.668-15.00838-.3333-26.07295,7.67006-26.40129,36.01365-39.98562,45.46186-75.69909,2.88965-10.51649-.445.76683,2.88965-10.18815,3.00138,21.91-8.78068,42.50539-22.2301,59.15706-18.22977,22.896-25.5656,25.08689-22.231,53.46036,17.549,3.79736,42.67072,11.08763,57.68887,19.39019-1.22327-8.216,2.88966-12.15979,7.77992-21.14307,11.338-20.92389,36.90368-34.50817,51.4646-56.19888,1.55559-2.41011,8.11409-13.58433,9.44723-15.7752-1.29458,6.53212-2.11909,23.0358-31.45575,50.50212-19.78542,18.5142-27.233,19.93826-32.34574,45.24438,7.00259,4.16306,13.78267,9.42128,17.8956,15.556,1.77086-13.61293,1.84246-14.08,3.66792-14.6795,36.8001-13.56306,70.94642-35.74,69.69344-74.60343-.07919-2.45615,3.26828-20.547-6.00275-36.91833-1.12629,10.36527-2.18937,25.26816-5.66852,38.67121-11.36634,46.46472-52.68371,58.71337-44.906,42.28615,8.69415-18.35767,39.42018-31.75083,39.90407-61.896.2467-15.37533-5.66161-22.3641-17.5623-9.74968-10.4984,11.128-20.47281,29.56645-37.01348,47.32567-6.22526,6.68227-13.56114,13.4742-18.67386,19.0613-5.11277,5.47752-8.00335,9.75016-13.89438,10.73622-13.4991,2.46334-32.27822-7.62814-27.67705-25.08688,6.78859-27.11065,56.2557-57.04715,25.56565-91.47435-6.13653-6.65247-4.2021-1.57711-15.7842,21.25272-12.92058,25.14968-24.04053,32.32306-32.34573,39.98562-20.13473,18.19139-14.253,27.92682-23.89736,34.50817-7.33943,5.00763-30.1366,7.49805-40.5716-9.64052-12.50475-21.47861-4.0055-39.18665-4.557-54.77476-.40456-16.93019-9.99426-29.8531-27.34375-34.94621-9.955-2.77277-12.95126,2.02483-11.0038,11.83144,2.04274,11.32612,6.40717,13.91124,6.78008,50.06413.504,48.33959-15.032,39.214-53.02019,25.52488-10.448-3.72458-18.56209-5.58662-25.67639-10.0785-12.12085-7.58452-19.58166-20.9424-27.12125-19.82862-6.735,1.32838-4.15783,15.32543-1.11155,21.58155,12.00506,25.13906,59.10518,31.29822,55.57655,39.98563-1.04989,2.58839-11.01107,8.42231-18.00639,12.70786a121.66954,121.66954,0,0,0,22.67507,3.28658c.435-3.87138,2.67508-8.10524,8.00335-11.83139-2.11232-10.29774-3.89042-13.03674-16.45074-17.96614-16.34-6.57316-42.683-12.48862-49.79724-30.89317-3.12914-14.94684-1.85-2.50281,11.44876,6.79192,13.89439,9.7501,67.69284,16.104,61.13429,38.78081,10.11568-5.91551,20.78618-5.58711,29.56686-6.24434A191.17337,191.17337,0,0,1,207.67017,155.93209Z"/><path class="cls-1" d="M88.95868,83.41037c10.72909-9.74324,36.58153.66723,46.46164-7.44959,26.89879-23.55324,45.23934-52.25506,109.37407-31.76921a7.38821,7.38821,0,0,0,3.11309-.21924c98.372-24.97556,118.39944,25.57294,131.60512,27.93505,42.90451,4.601,47.57319-2.95776,59.35525,5.14906-10.004-17.30885-30.45591-25.96331-56.4656-29.24989-4.66287,0-64.386-46.902-160.61617-22.34837-3.9,1.28235-50.80169-11.27663-99.03687,31.00282-1.59907,1.57557-55.45949,20.48413-52.02036,52.80313,0,3.02883-20.26646,20.55174-15.33918,34.83651C60.135,157.41972,84.3338,159.916,85.28983,160.862a131.17548,131.17548,0,0,0,35.56956,14.24151c2.44562-1.53365,4.77947-3.06735,7.11338-4.4914-25.0349-4.73789-39.0573-15.16312-42.34876-15.88485-29.81678-5.68668-32.29312-16.35687-11.11547-39.54764,3.3027-3.72157,1.55619-6.57708,2.22312-11.50255C78.30108,90.95114,89.81045,83.41037,88.95868,83.41037Z"/><path class="cls-2" d="M340.27479,350.90943c8.87929,1.28294,12.45667.93841,11.9592,4.41851-13.103,91.66338-11.82747,87.91506-15.40723,87.403l-16.26894-2.37105c-.0801.5584-3.771,26.54723-3.771,25.86547-7.13433,25.58821-45.57466,21.23383-45.57466-7.00519l3.771-25.4341L178.1227,419.66787c-3.81388,26.47707-3.66365,25.70281-3.66365,25.64978,0,5.279-10.11329,19.11281-25.7503,16.92012C126.53609,458.95187,128.777,434.695,128.777,438.7433c0-.32776-.30935,1.88053,3.77014-25.75712-16.32629-2.3638-19.03952-1.83289-18.53124-5.38862,13.103-91.66338,11.82738-87.91472,15.40718-87.403l9.697,1.40094,11.5279-79.10473c-6.817,1.0917-10.51516,2.72224-11.09744-.75437-.49563-.99322,8.4513-53.28562,7.54208-56.90339a129.62743,129.62743,0,0,1-59.04267-17.78236C51.4304,159.44813,45.3171,139.7734,70.91917,110.79384c-1.42117-26.87653,27.88505-44.48581,52.578-55.395,28.12082-24.89493,60.87444-35.67206,98.26093-31.46923,55.59465-14.22562,108.281-7.00519,157.735,22.09352,41.48054,5.496,69.38568,25.32624,64.64458,70.26719.6045,40.30634-31.73453,63.25934-69.60136,77.59545C359.57,284.942,367.8945,279.505,351.80269,271.80471Z"/><path class="cls-3" d="M325.08323,336.68333l8.72692-60.02876a334.53057,334.53057,0,0,0-167.32364-24.35623l-8.72687,60.02881,127.4583,18.53674c8.559-4.0891,18.512-1.958,24.02676,3.55626Z"/><path class="cls-4" d="M279.8307,335.49807c-135.74334-19.83043-128.21369-17.56215-127.674-21.33867,10.01386-70.06992,8.87489-66.2661,11.6362-66.81874,6.34341,0,83.36994-13.96551,173.89561,25.32629a2.49181,2.49181,0,0,1,1.6162,2.80236l-9.37391,64.55513a2.65882,2.65882,0,0,1-3.01666,2.26314l-13.03666-1.83225c5.21514,9.12153-5.708,5.74259,21.22573,9.69967l11.63619-80.72129a344.989,344.989,0,0,0-190.70426-27.69729L144.399,322.3499l130.79887,19.07548A41.17683,41.17683,0,0,1,279.8307,335.49807Z"/><path class="cls-4" d="M272.28957,346.38306,131.255,325.79834l-11.63619,79.96692,215.37616,31.36142,11.63619-79.96644c-34.81017-5.04449-30.35612-5.21418-30.81446-2.47887-3.44707,16.38142-8.18817,29.42178-17.13072,42.46209a117.60578,117.60578,0,0,0,24.78114-12.82468c2.97291-1.89292,5.77121,2.597,2.90832,4.41855-55.67015,37.70965-131.25692,24.047-170.34025-29.96047a48.28413,48.28413,0,0,0-13.144,25.4341c-.50715,3.29418-5.803,2.68961-5.2798-.97005a53.546,53.546,0,0,1,40.18832-42.67777,2.52,2.52,0,0,1,3.124,1.94012c1.48355,4.81816-7.79546,1.83153-21.00919,12.71686a118.84738,118.84738,0,0,0,73.91025,47.31195c13.25233-5.38861,21.33316-13.68692,27.04337-26.72723C264.262,368.33628,271.10912,346.38306,272.28957,346.38306Z"/><path class="cls-5" d="M243.09125,403.933a118.08,118.08,0,0,0,46.86778-3.8798c11.42052-14.54912,16.8077-28.34386,20.68613-46.44971a16.40961,16.40961,0,0,0-23.5954-17.78236C266.92365,352.48532,273.62164,386.93169,243.09125,403.933Z"/><path class="cls-6" d="M137.93433,333.12707l131.769,19.1833a57.95178,57.95178,0,0,1,2.58626-5.92731L131.255,325.79834l-11.63619,79.96692,7.54208,1.07793Zm176.91323,25.7576,30.9218,4.52637.86177-6.2508-30.49049-4.41851A48.158,48.158,0,0,1,314.84756,358.88467Z"/><path class="cls-7" d="M330.03911,430.98374c-264.84208-31.51365-277.85165-35.06492,4.95583,6.14294C349.35076,338.90807,351.02755,340.82333,330.03911,430.98374Z"/><path class="cls-8" d="M156.03516,358.77686a48.41507,48.41507,0,0,0-13.144,25.4341,62.42337,62.42337,0,0,1,7.54118-10.77717c-12.55009-12.56654,53.99922,67.15019,148.361,29.31391C244.77537,421.75934,187.56346,402.34438,156.03516,358.77686Zm-8.51124,11.74723Z"/><path class="cls-9" d="M282.74,343.042c.14755,0,.51-.77573.53875-.86225,4.70806-7.35535,8.4259-8.35211,3.771-6.35862-19.968,16.53324-13.53507,51.17011-43.95851,68.11187a118.08,118.08,0,0,0,46.86778-3.8798c1.91044-2.86988,3.34956-1.82987-5.92593-.21521-12.17489,2.47839-24.45717,4.41851-36.74035,3.01757C271.29117,389.24417,272.7604,360.21132,282.74,343.042Z"/><path class="cls-10" d="M306.87412,354.14268c-9.31632,44.68137-27.77182,47.14062-15.51462,44.0787,10.45141-13.9026,15.62291-27.2664,19.28566-44.61788,2.46506-11.835-8.86011-22.36666-20.36306-18.96767C301.0159,334.00393,308.96538,344.10151,306.87412,354.14268Z"/><path class="cls-6" d="M177.79963,340.56314a40.399,40.399,0,0,0-40.18832,42.67777c4.04162-22.43673,18.48323-30.49918,17.02338-30.49918C166.99651,341.61275,179.637,340.56314,177.79963,340.56314Z"/><path class="cls-1" d="M163.25422,313.18934l8.18817-55.82594a334.73586,334.73586,0,0,1,161.72072,23.60186l.647-4.31069a334.53057,334.53057,0,0,0-167.32364-24.35623l-8.72687,60.02881Z"/><path class="cls-8" d="M344.04583,271.69689a345.64332,345.64332,0,0,0-188.22635-28.12817l.21568-1.8323a344.989,344.989,0,0,1,190.70426,27.69729c-13.3577,92.66353-10.63775,80.895-14.115,80.29Z"/><path class="cls-6" d="M148.60136,322.99646,160.23756,243.03c-1.50881.2152-3.01667.43088-4.41808.53875L144.399,322.3499Z"/><path class="cls-11" d="M146.98522,237.42573c73.69547-13.57954,143.72819-2.69455,210.42033,30.607l8.08078-55.179C340.8328,176.872,195.6256,155.34871,155.92777,175.88773,156.01059,175.88773,150.65973,212.82507,146.98522,237.42573Z"/><path class="cls-11" d="M211.63076,157.67449a371.15357,371.15357,0,0,1,74.66462,8.72962c-3.98582-8.514-3.55541-14.7648-.32307-25.64979,7.43469-25.9728,34.90852-39.33666,44.0668-74.47049,2.801-10.34582-.43136.75438,2.801-10.0228,2.90927,21.55435-8.51124,41.81552-21.548,58.19694-17.67037,22.52441-24.78109,24.67973-21.5488,52.5927,17.01055,3.73573,41.36132,10.90768,55.91862,19.07549-1.18574-8.08263,2.801-11.96244,7.54118-20.79993,10.99011-20.58429,35.77124-33.94809,49.88535-55.28676,1.50785-2.371,7.86509-13.36386,9.15732-15.51918-1.25485,6.42611-2.05406,22.66194-30.49049,49.68248-19.17827,18.21372-26.39728,19.61466-31.35316,44.51006,6.7877,4.09549,13.35973,9.26837,17.34645,15.3035,1.71652-13.392,1.78592-13.8515,3.55536-14.44125,35.67084-13.34294,68.76933-35.1599,67.5548-73.39262-.46614-14.67409,7.25332-56.26455-60.55142-65.09431-4.51978,0-62.4102-46.1408-155.68745-21.98566-3.7803,1.26154-49.24278-11.0936-95.9978,30.49965-1.55,1.55-53.75764,20.15167-50.424,51.94614,0,2.97966-19.64456,20.21818-14.86848,34.27111,4.59972,13.10291,28.05593,15.5587,28.98264,16.48928a123.45321,123.45321,0,0,0,56.45731,17.24361c.42162-3.80855,2.593-7.9737,7.75776-11.63937-2.0475-10.13061-3.771-12.82515-15.94593-17.67454-15.83859-6.46649-41.3732-12.28593-48.26914-30.39178-3.03313-14.70426-1.79321-2.46219,11.09744,6.68168,13.468,9.59187,65.61559,15.84267,59.25829,38.1514,9.80527-5.8195,20.14833-5.49643,28.65957-6.143,6.896-.64657,12.60625-1.07787,19.60963-1.07787-15.82555-28.68887-4.00578-69.70986-9.80526-87.94174-1.83093-5.60429-4.2015-8.08268-7.64947-12.60947l5.06416,2.47886c12.821,9.37618,11.42046,39.12145,11.09744,53.23921C206.78546,144.22828,212.57823,157.69706,211.63076,157.67449Z"/><path class="cls-12" d="M165.19343,172.43923a47.1294,47.1294,0,0,0-9.26566,3.4485c-1.00749,8.056-8.95245,61.60529-8.94255,61.538,73.69547-13.57954,143.72819-2.69455,210.42033,30.607l.97006-6.57388c-64.21513-30.39178-131.1229-43.32433-201.69341-30.284C165.26041,172.12533,165.20069,172.386,165.19343,172.43923Z"/><path class="cls-13" d="M348.24727,256.82471c3.33974,1.5088,6.78771,3.01756,10.12834,4.63418l7.11072-48.60508c-20.21806-29.50824-121.12715-49.28162-178.85239-44.07865-17.56221,1.56075-21.603,3.99042-21.5479,3.87975,50.98892-8.05772,166.4891,9.91275,189.08717,42.893C354.256,215.54788,348.23668,256.89851,348.24727,256.82471Z"/><path class="cls-13" d="M208.93716,157.45881c-15.82555-28.68887-4.00578-69.70986-9.80526-87.94174-1.83093-5.60429-4.2015-8.08268-7.64947-12.60947l5.06416,2.47886c12.821,9.37618,11.42046,39.12145,11.09744,53.23921-.53875,19.83034.75438,27.37427,3.98673,45.04882a371.15357,371.15357,0,0,1,74.66462,8.72962c-3.98582-8.514-3.55541-14.7648-.32307-25.64979,7.43469-25.9728,34.90852-39.33666,44.0668-74.47049,2.801-10.34582-.43136.75438,2.801-10.0228,2.90927,21.55435-8.51124,41.81552-21.548,58.19694-17.67037,22.52441-24.78109,24.67973-21.5488,52.5927,17.01055,3.73573,41.36132,10.90768,55.91862,19.07549-1.18574-8.08263,2.801-11.96244,7.54118-20.79993,10.99011-20.58429,35.77124-33.94809,49.88535-55.28676,1.50785-2.371,7.86509-13.36386,9.15732-15.51918-1.25485,6.42611-2.05406,22.66194-30.49049,49.68248-19.17827,18.21372-26.39728,19.61466-31.35316,44.51006,6.7877,4.09549,13.35973,9.26837,17.34645,15.3035,1.71652-13.392,1.78592-13.8515,3.55536-14.44125,35.67084-13.34294,68.76933-35.1599,67.5548-73.39262-.07675-2.41628,3.168-20.21348-5.81854-36.31915-1.09173,10.19705-2.12219,24.85807-5.49458,38.04358-11.01755,45.7106-51.067,57.76045-43.52805,41.59985,8.42737-18.05973,38.21053-31.23552,38.67957-60.89144.23912-15.12578-5.48788-22.00113-17.02338-9.59143-10.17625,10.94742-19.84458,29.08658-35.87768,46.55757-6.03422,6.57382-13.145,13.25551-18.10082,18.75194-4.95588,5.38861-7.75776,9.59191-13.468,10.562-13.08486,2.42336-31.28772-7.50434-26.82774-24.67973,6.58027-26.67064,54.52942-56.12127,24.78114-89.98971-5.94823-6.54451-4.07316-1.55151-15.29985,20.90778-12.52409,24.7415-23.30282,31.79846-31.35316,39.33666-19.51686,17.89614-13.8156,27.47356-23.164,33.9481-7.1142,4.92636-29.21181,7.37636-39.3266-9.484-12.121-21.13-3.88258-38.55065-4.41712-53.88577-.39215-16.65542-9.68758-29.36858-26.50468-34.379-9.64955-2.72776-12.55383,1.992-10.66613,11.63942,1.98006,11.1423,6.21056,13.68546,6.572,49.25159.48853,47.555-14.57072,38.57759-51.3932,25.11061-10.12738-3.66412-17.99248-5.496-24.88847-9.91493-11.74891-7.46142-18.98077-20.60249-26.289-19.50679-6.52833,1.30682-4.03025,15.07669-1.07745,21.23128,11.63667,24.731,57.29147,30.79025,53.87111,39.33666-1.01767,2.54638-10.67317,8.28561-17.45383,12.50161a116.317,116.317,0,0,0,21.97925,3.23324c.42162-3.80855,2.593-7.9737,7.75776-11.63937-2.0475-10.13061-3.771-12.82515-15.94593-17.67454-15.83859-6.46649-41.3732-12.28593-48.26914-30.39178-3.03313-14.70426-1.79321-2.46219,11.09744,6.68168,13.468,9.59187,65.61559,15.84267,59.25829,38.1514,9.80527-5.8195,20.14833-5.49643,28.65957-6.143A182.60662,182.60662,0,0,1,208.93716,157.45881Z"/><path class="cls-12" d="M93.86849,86.11412c10.39985-9.5851,35.459.65641,45.0359-7.32868,26.07336-23.171,43.85112-51.407,106.01779-31.2536a7.06023,7.06023,0,0,0,3.01756-.21568C343.29309,22.746,362.70594,72.47405,375.50638,74.79782c41.58793,4.52632,46.11335-2.90975,57.53386,5.06549-9.697-17.02793-29.52134-25.54192-54.73288-28.77516-4.51978,0-62.4102-46.1408-155.68745-21.98566-3.7803,1.26154-49.24278-11.0936-95.9978,30.49965-1.55,1.55-53.75764,20.15167-50.424,51.94614,0,2.97966-19.64456,20.21818-14.86848,34.27111,4.59972,13.10291,28.05593,15.5587,28.98264,16.48928A126.07692,126.07692,0,0,0,124.79029,176.319c2.37057-1.50876,4.6328-3.01757,6.89509-4.41851-24.26667-4.661-37.85878-14.917-41.04924-15.627C61.73433,150.67911,59.334,140.1821,79.86177,117.36772c3.20135-3.66117,1.50843-6.47034,2.1549-11.31587C83.53793,93.53251,94.69412,86.11412,93.86849,86.11412Z"/></svg>